<svg width="23" height="24" viewBox="0 0 23 24" fill="none" xmlns="http://www.w3.org/2000/svg">
<g id="close-16px">
<path id="Union" d="M5.65692 11.3333C5.28873 11.3333 4.99025 11.6318 4.99025 12C4.99025 12.3682 5.28873 12.6667 5.65692 12.6667L10.6471 12.6667L10.6471 17.6568C10.6471 18.025 10.9456 18.3235 11.3138 18.3235C11.682 18.3235 11.9805 18.025 11.9805 17.6568L11.9805 12.6667L16.9706 12.6667C17.3388 12.6667 17.6373 12.3682 17.6373 12C17.6373 11.6318 17.3388 11.3333 16.9706 11.3333L11.9805 11.3333L11.9805 6.34313C11.9805 5.97494 11.682 5.67647 11.3138 5.67647C10.9456 5.67647 10.6471 5.97494 10.6471 6.34313L10.6471 11.3333L5.65692 11.3333Z" fill="#959CB6"/>
</g>
</svg>
