<svg width="16" height="16" viewBox="0 0 16 16" fill="none" xmlns="http://www.w3.org/2000/svg">
<g id="close-16px">
<path id="Union" d="M11.5287 12.4717C11.789 12.7321 12.2111 12.7321 12.4715 12.4717C12.7318 12.2114 12.7318 11.7893 12.4715 11.5289L8.94288 8.00031L12.4715 4.47173C12.7318 4.21138 12.7318 3.78927 12.4715 3.52892C12.2111 3.26857 11.789 3.26857 11.5287 3.52892L8.00007 7.0575L4.47148 3.52891C4.21113 3.26856 3.78902 3.26856 3.52867 3.52891C3.26832 3.78926 3.26832 4.21137 3.52867 4.47172L7.05726 8.00031L3.52866 11.5289C3.26831 11.7893 3.26831 12.2114 3.52866 12.4717C3.78901 12.7321 4.21112 12.7321 4.47147 12.4717L8.00007 8.94312L11.5287 12.4717Z" fill="#03A790"/>
</g>
</svg>
