<svg width="19" height="18" viewBox="0 0 19 18" fill="none" xmlns="http://www.w3.org/2000/svg">
<g id="fi-sr-apps" clip-path="url(#clip0_184_3147)">
<path id="Vector" d="M5.75 0H3.5C1.84315 0 0.5 1.34315 0.5 3V5.25C0.5 6.90685 1.84315 8.25 3.5 8.25H5.75C7.40685 8.25 8.75 6.90685 8.75 5.25V3C8.75 1.34315 7.40685 0 5.75 0Z" fill="#1D1F2C"/>
<path id="Vector_2" d="M15.5 0H13.25C11.5931 0 10.25 1.34315 10.25 3V5.25C10.25 6.90686 11.5931 8.25001 13.25 8.25001H15.5C17.1568 8.25001 18.5 6.90686 18.5 5.25V3C18.5 1.34315 17.1568 0 15.5 0Z" fill="#1D1F2C"/>
<path id="Vector_3" d="M5.75 9.75H3.5C1.84315 9.75 0.5 11.0931 0.5 12.75V15C0.5 16.6569 1.84315 18 3.5 18H5.75C7.40685 18 8.75 16.6569 8.75 15V12.75C8.75 11.0931 7.40685 9.75 5.75 9.75Z" fill="#1D1F2C"/>
<path id="Vector_4" d="M15.5 9.75H13.25C11.5931 9.75 10.25 11.0931 10.25 12.75V15C10.25 16.6569 11.5931 18 13.25 18H15.5C17.1568 18 18.5 16.6569 18.5 15V12.75C18.5 11.0931 17.1568 9.75 15.5 9.75Z" fill="#1D1F2C"/>
</g>
<defs>
<clipPath id="clip0_184_3147">
<rect width="18" height="18" fill="white" transform="translate(0.5)"/>
</clipPath>
</defs>
</svg>
