<svg width="19" height="18" viewBox="0 0 19 18" fill="none" xmlns="http://www.w3.org/2000/svg">
<g id="fi-rr-menu-burger" clip-path="url(#clip0_184_3134)">
<path id="Vector" d="M17.75 8.24976H1.25C0.835786 8.24976 0.5 8.58554 0.5 8.99976C0.5 9.41398 0.835786 9.74976 1.25 9.74976H17.75C18.1642 9.74976 18.5 9.41398 18.5 8.99976C18.5 8.58554 18.1642 8.24976 17.75 8.24976Z" fill="#1D1F2C"/>
<path id="Vector_2" d="M17.75 3.00024H1.25C0.835786 3.00024 0.5 3.33603 0.5 3.75024C0.5 4.16446 0.835786 4.50024 1.25 4.50024H17.75C18.1642 4.50024 18.5 4.16446 18.5 3.75024C18.5 3.33603 18.1642 3.00024 17.75 3.00024Z" fill="#1D1F2C"/>
<path id="Vector_3" d="M17.75 13.5H1.25C0.835786 13.5 0.5 13.8358 0.5 14.25C0.5 14.6642 0.835786 15 1.25 15H17.75C18.1642 15 18.5 14.6642 18.5 14.25C18.5 13.8358 18.1642 13.5 17.75 13.5Z" fill="#1D1F2C"/>
</g>
<defs>
<clipPath id="clip0_184_3134">
<rect width="18" height="18" fill="white" transform="translate(0.5)"/>
</clipPath>
</defs>
</svg>
