<svg width="19" height="18" viewBox="0 0 19 18" fill="none" xmlns="http://www.w3.org/2000/svg">
<g id="fi-rr-gift" clip-path="url(#clip0_184_3153)">
<path id="Vector" d="M15.5 5.25H14.1965C14.6206 4.8762 14.9572 4.41366 15.1824 3.8952C15.4077 3.37674 15.5161 2.81506 15.5 2.25C15.5 2.05109 15.421 1.86032 15.2803 1.71967C15.1397 1.57902 14.9489 1.5 14.75 1.5C14.5511 1.5 14.3603 1.57902 14.2197 1.71967C14.079 1.86032 14 2.05109 14 2.25C14 4.2165 12.2218 4.8975 10.8695 5.13075C11.3686 4.24579 11.6691 3.26278 11.75 2.25C11.75 1.65326 11.5129 1.08097 11.091 0.65901C10.669 0.237053 10.0967 0 9.5 0C8.90326 0 8.33097 0.237053 7.90901 0.65901C7.48705 1.08097 7.25 1.65326 7.25 2.25C7.33093 3.26278 7.63139 4.24579 8.1305 5.13075C6.77825 4.8975 5 4.2165 5 2.25C5 2.05109 4.92098 1.86032 4.78033 1.71967C4.63968 1.57902 4.44891 1.5 4.25 1.5C4.05109 1.5 3.86032 1.57902 3.71967 1.71967C3.57902 1.86032 3.5 2.05109 3.5 2.25C3.48388 2.81506 3.59231 3.37674 3.81758 3.8952C4.04285 4.41366 4.37945 4.8762 4.8035 5.25H3.5C2.70435 5.25 1.94129 5.56607 1.37868 6.12868C0.816071 6.69129 0.5 7.45435 0.5 8.25L0.5 9C0.5 9.39782 0.658035 9.77936 0.93934 10.0607C1.22064 10.342 1.60218 10.5 2 10.5V14.25C2.00119 15.2442 2.39666 16.1973 3.09966 16.9003C3.80267 17.6033 4.7558 17.9988 5.75 18H13.25C14.2442 17.9988 15.1973 17.6033 15.9003 16.9003C16.6033 16.1973 16.9988 15.2442 17 14.25V10.5C17.3978 10.5 17.7794 10.342 18.0607 10.0607C18.342 9.77936 18.5 9.39782 18.5 9V8.25C18.5 7.45435 18.1839 6.69129 17.6213 6.12868C17.0587 5.56607 16.2956 5.25 15.5 5.25ZM9.5 1.5C9.69891 1.5 9.88968 1.57902 10.0303 1.71967C10.171 1.86032 10.25 2.05109 10.25 2.25C10.1595 3.04712 9.90405 3.81668 9.5 4.50975C9.09595 3.81668 8.84054 3.04712 8.75 2.25C8.75 2.05109 8.82902 1.86032 8.96967 1.71967C9.11032 1.57902 9.30109 1.5 9.5 1.5ZM2 8.25C2 7.85218 2.15804 7.47064 2.43934 7.18934C2.72064 6.90804 3.10218 6.75 3.5 6.75H8.75V9H2V8.25ZM3.5 14.25V10.5H8.75V16.5H5.75C5.15326 16.5 4.58097 16.2629 4.15901 15.841C3.73705 15.419 3.5 14.8467 3.5 14.25ZM15.5 14.25C15.5 14.8467 15.2629 15.419 14.841 15.841C14.419 16.2629 13.8467 16.5 13.25 16.5H10.25V10.5H15.5V14.25ZM10.25 9V6.75H15.5C15.8978 6.75 16.2794 6.90804 16.5607 7.18934C16.842 7.47064 17 7.85218 17 8.25V9H10.25Z" fill="#374957"/>
</g>
<defs>
<clipPath id="clip0_184_3153">
<rect width="18" height="18" fill="white" transform="translate(0.5)"/>
</clipPath>
</defs>
</svg>
