<svg width="19" height="18" viewBox="0 0 19 18" fill="none" xmlns="http://www.w3.org/2000/svg">
<g id="fi-rr-user" clip-path="url(#clip0_184_3367)">
<path id="Vector" d="M9.5 9C10.39 9 11.26 8.73608 12.0001 8.24162C12.7401 7.74715 13.3169 7.04434 13.6575 6.22208C13.9981 5.39981 14.0872 4.49501 13.9135 3.6221C13.7399 2.74918 13.3113 1.94736 12.682 1.31802C12.0526 0.688685 11.2508 0.260102 10.3779 0.0864683C9.50499 -0.0871652 8.60019 0.00194979 7.77792 0.342544C6.95566 0.683138 6.25285 1.25991 5.75839 1.99994C5.26392 2.73996 5 3.60999 5 4.5C5.00119 5.69311 5.47568 6.83701 6.31934 7.68067C7.16299 8.52432 8.30689 8.99881 9.5 9ZM9.5 1.5C10.0933 1.5 10.6734 1.67595 11.1667 2.00559C11.6601 2.33524 12.0446 2.80377 12.2716 3.35195C12.4987 3.90013 12.5581 4.50333 12.4424 5.08527C12.3266 5.66722 12.0409 6.20177 11.6213 6.62132C11.2018 7.04088 10.6672 7.3266 10.0853 7.44236C9.50333 7.55811 8.90013 7.4987 8.35195 7.27164C7.80377 7.04458 7.33524 6.66006 7.00559 6.16671C6.67595 5.67337 6.5 5.09335 6.5 4.5C6.5 3.70435 6.81607 2.94129 7.37868 2.37868C7.94129 1.81607 8.70435 1.5 9.5 1.5Z" fill="#374957"/>
<path id="Vector_2" d="M9.5 10.5004C7.7104 10.5024 5.99466 11.2141 4.72922 12.4796C3.46378 13.745 2.75199 15.4608 2.75 17.2504C2.75 17.4493 2.82902 17.64 2.96967 17.7807C3.11032 17.9213 3.30109 18.0004 3.5 18.0004C3.69891 18.0004 3.88968 17.9213 4.03033 17.7807C4.17098 17.64 4.25 17.4493 4.25 17.2504C4.25 15.858 4.80312 14.5226 5.78769 13.5381C6.77226 12.5535 8.10761 12.0004 9.5 12.0004C10.8924 12.0004 12.2277 12.5535 13.2123 13.5381C14.1969 14.5226 14.75 15.858 14.75 17.2504C14.75 17.4493 14.829 17.64 14.9697 17.7807C15.1103 17.9213 15.3011 18.0004 15.5 18.0004C15.6989 18.0004 15.8897 17.9213 16.0303 17.7807C16.171 17.64 16.25 17.4493 16.25 17.2504C16.248 15.4608 15.5362 13.745 14.2708 12.4796C13.0053 11.2141 11.2896 10.5024 9.5 10.5004Z" fill="#374957"/>
</g>
<defs>
<clipPath id="clip0_184_3367">
<rect width="18" height="18" fill="white" transform="translate(0.5)"/>
</clipPath>
</defs>
</svg>
