<svg width="19" height="18" viewBox="0 0 19 18" fill="none" xmlns="http://www.w3.org/2000/svg">
<g id="fi-rr-browser" clip-path="url(#clip0_184_3150)">
<path id="Vector" d="M14.75 0.75H4.25C3.2558 0.751191 2.30267 1.14666 1.59966 1.84966C0.896661 2.55267 0.501191 3.5058 0.5 4.5L0.5 13.5C0.501191 14.4942 0.896661 15.4473 1.59966 16.1503C2.30267 16.8533 3.2558 17.2488 4.25 17.25H14.75C15.7442 17.2488 16.6973 16.8533 17.4003 16.1503C18.1033 15.4473 18.4988 14.4942 18.5 13.5V4.5C18.4988 3.5058 18.1033 2.55267 17.4003 1.84966C16.6973 1.14666 15.7442 0.751191 14.75 0.75ZM4.25 2.25H14.75C15.3467 2.25 15.919 2.48705 16.341 2.90901C16.7629 3.33097 17 3.90326 17 4.5V5.25H2V4.5C2 3.90326 2.23705 3.33097 2.65901 2.90901C3.08097 2.48705 3.65326 2.25 4.25 2.25ZM14.75 15.75H4.25C3.65326 15.75 3.08097 15.5129 2.65901 15.091C2.23705 14.669 2 14.0967 2 13.5V6.75H17V13.5C17 14.0967 16.7629 14.669 16.341 15.091C15.919 15.5129 15.3467 15.75 14.75 15.75ZM14.75 9.75C14.75 9.94891 14.671 10.1397 14.5303 10.2803C14.3897 10.421 14.1989 10.5 14 10.5H5C4.80109 10.5 4.61032 10.421 4.46967 10.2803C4.32902 10.1397 4.25 9.94891 4.25 9.75C4.25 9.55109 4.32902 9.36032 4.46967 9.21967C4.61032 9.07902 4.80109 9 5 9H14C14.1989 9 14.3897 9.07902 14.5303 9.21967C14.671 9.36032 14.75 9.55109 14.75 9.75ZM11.75 12.75C11.75 12.9489 11.671 13.1397 11.5303 13.2803C11.3897 13.421 11.1989 13.5 11 13.5H5C4.80109 13.5 4.61032 13.421 4.46967 13.2803C4.32902 13.1397 4.25 12.9489 4.25 12.75C4.25 12.5511 4.32902 12.3603 4.46967 12.2197C4.61032 12.079 4.80109 12 5 12H11C11.1989 12 11.3897 12.079 11.5303 12.2197C11.671 12.3603 11.75 12.5511 11.75 12.75ZM2.75 3.75C2.75 3.60166 2.79399 3.45666 2.8764 3.33332C2.95881 3.20999 3.07594 3.11386 3.21299 3.05709C3.35003 3.00032 3.50083 2.98547 3.64632 3.01441C3.7918 3.04335 3.92544 3.11478 4.03033 3.21967C4.13522 3.32456 4.20665 3.4582 4.23559 3.60368C4.26453 3.74917 4.24968 3.89997 4.19291 4.03701C4.13614 4.17406 4.04001 4.29119 3.91668 4.3736C3.79334 4.45601 3.64834 4.5 3.5 4.5C3.30109 4.5 3.11032 4.42098 2.96967 4.28033C2.82902 4.13968 2.75 3.94891 2.75 3.75ZM5 3.75C5 3.60166 5.04399 3.45666 5.1264 3.33332C5.20881 3.20999 5.32594 3.11386 5.46299 3.05709C5.60003 3.00032 5.75083 2.98547 5.89632 3.01441C6.0418 3.04335 6.17544 3.11478 6.28033 3.21967C6.38522 3.32456 6.45665 3.4582 6.48559 3.60368C6.51453 3.74917 6.49968 3.89997 6.44291 4.03701C6.38614 4.17406 6.29001 4.29119 6.16668 4.3736C6.04334 4.45601 5.89834 4.5 5.75 4.5C5.55109 4.5 5.36032 4.42098 5.21967 4.28033C5.07902 4.13968 5 3.94891 5 3.75ZM7.25 3.75C7.25 3.60166 7.29399 3.45666 7.3764 3.33332C7.45881 3.20999 7.57594 3.11386 7.71299 3.05709C7.85003 3.00032 8.00083 2.98547 8.14632 3.01441C8.2918 3.04335 8.42544 3.11478 8.53033 3.21967C8.63522 3.32456 8.70665 3.4582 8.73559 3.60368C8.76453 3.74917 8.74968 3.89997 8.69291 4.03701C8.63614 4.17406 8.54002 4.29119 8.41668 4.3736C8.29334 4.45601 8.14834 4.5 8 4.5C7.80109 4.5 7.61032 4.42098 7.46967 4.28033C7.32902 4.13968 7.25 3.94891 7.25 3.75Z" fill="#374957"/>
</g>
<defs>
<clipPath id="clip0_184_3150">
<rect width="18" height="18" fill="white" transform="translate(0.5)"/>
</clipPath>
</defs>
</svg>
