<svg width="19" height="18" viewBox="0 0 19 18" fill="none" xmlns="http://www.w3.org/2000/svg">
<g id="fi-rr-settings">
<path id="Vector" d="M9.5 6.00037C8.90666 6.00037 8.32664 6.17631 7.83329 6.50596C7.33994 6.8356 6.95543 7.30414 6.72836 7.85232C6.5013 8.40049 6.44189 9.00369 6.55765 9.58564C6.6734 10.1676 6.95912 10.7021 7.37868 11.1217C7.79824 11.5412 8.33279 11.827 8.91473 11.9427C9.49667 12.0585 10.0999 11.9991 10.6481 11.772C11.1962 11.5449 11.6648 11.1604 11.9944 10.6671C12.3241 10.1737 12.5 9.59371 12.5 9.00037C12.5 8.20472 12.1839 7.44165 11.6213 6.87905C11.0587 6.31644 10.2957 6.00037 9.5 6.00037ZM9.5 10.5004C9.20333 10.5004 8.91332 10.4124 8.66665 10.2476C8.41997 10.0827 8.22771 9.84848 8.11418 9.57439C8.00065 9.3003 7.97095 8.9987 8.02882 8.70773C8.0867 8.41676 8.22956 8.14949 8.43934 7.93971C8.64912 7.72993 8.91639 7.58707 9.20737 7.52919C9.49834 7.47131 9.79994 7.50102 10.074 7.61455C10.3481 7.72808 10.5824 7.92034 10.7472 8.16701C10.912 8.41368 11 8.70369 11 9.00037C11 9.39819 10.842 9.77972 10.5607 10.061C10.2794 10.3423 9.89783 10.5004 9.5 10.5004Z" fill="#374957"/>
<path id="Vector_2" d="M16.4704 10.425L16.1374 10.233C16.2873 9.41733 16.2873 8.58117 16.1374 7.7655L16.4704 7.5735C16.7264 7.42576 16.9509 7.22903 17.1309 6.99455C17.311 6.76006 17.4431 6.4924 17.5197 6.20686C17.5963 5.92132 17.6159 5.62349 17.5774 5.33037C17.5389 5.03725 17.4431 4.75458 17.2954 4.4985C17.1476 4.24242 16.9509 4.01795 16.7164 3.8379C16.4819 3.65785 16.2143 3.52575 15.9287 3.44915C15.6432 3.37254 15.3453 3.35292 15.0522 3.39142C14.7591 3.42991 14.4764 3.52576 14.2204 3.6735L13.8866 3.86625C13.2563 3.32769 12.5318 2.91019 11.7498 2.63475V2.25C11.7498 1.65326 11.5128 1.08097 11.0908 0.65901C10.6689 0.237053 10.0966 0 9.49985 0C8.90311 0 8.33082 0.237053 7.90886 0.65901C7.4869 1.08097 7.24985 1.65326 7.24985 2.25V2.63475C6.46789 2.91118 5.74374 3.3297 5.11385 3.86925L4.7786 3.675C4.26143 3.37663 3.64691 3.29593 3.07024 3.45065C2.49356 3.60536 2.00197 3.98283 1.7036 4.5C1.40523 5.01717 1.32453 5.63169 1.47925 6.20836C1.63396 6.78504 2.01143 7.27663 2.5286 7.575L2.8616 7.767C2.71168 8.58267 2.71168 9.41883 2.8616 10.2345L2.5286 10.4265C2.01143 10.7249 1.63396 11.2165 1.47925 11.7931C1.32453 12.3698 1.40523 12.9843 1.7036 13.5015C2.00197 14.0187 2.49356 14.3961 3.07024 14.5509C3.64691 14.7056 4.26143 14.6249 4.7786 14.3265L5.11235 14.1337C5.74292 14.6724 6.46758 15.0899 7.24985 15.3652V15.75C7.24985 16.3467 7.4869 16.919 7.90886 17.341C8.33082 17.7629 8.90311 18 9.49985 18C10.0966 18 10.6689 17.7629 11.0908 17.341C11.5128 16.919 11.7498 16.3467 11.7498 15.75V15.3652C12.5318 15.0888 13.256 14.6703 13.8858 14.1307L14.2211 14.3243C14.7383 14.6226 15.3528 14.7033 15.9295 14.5486C16.5061 14.3939 16.9977 14.0164 17.2961 13.4993C17.5945 12.9821 17.6752 12.3676 17.5205 11.7909C17.3657 11.2142 16.9883 10.7226 16.4711 10.4242L16.4704 10.425ZM14.5594 7.593C14.8133 8.5133 14.8133 9.4852 14.5594 10.4055C14.515 10.5657 14.5251 10.7361 14.5881 10.8899C14.6511 11.0437 14.7634 11.1722 14.9073 11.2552L15.7204 11.7248C15.8927 11.8242 16.0185 11.9881 16.07 12.1803C16.1216 12.3725 16.0947 12.5773 15.9952 12.7496C15.8958 12.922 15.7319 13.0478 15.5397 13.0993C15.3475 13.1509 15.1427 13.124 14.9704 13.0245L14.1558 12.5535C14.0118 12.4701 13.844 12.4369 13.679 12.4593C13.514 12.4817 13.3612 12.5584 13.2446 12.6772C12.577 13.3587 11.736 13.845 10.8123 14.0835C10.6511 14.125 10.5083 14.2189 10.4063 14.3504C10.3043 14.482 10.249 14.6438 10.2491 14.8102V15.75C10.2491 15.9489 10.1701 16.1397 10.0294 16.2803C9.88878 16.421 9.69801 16.5 9.4991 16.5C9.30019 16.5 9.10942 16.421 8.96877 16.2803C8.82812 16.1397 8.7491 15.9489 8.7491 15.75V14.811C8.74918 14.6445 8.69388 14.4828 8.5919 14.3512C8.48993 14.2196 8.34707 14.1257 8.18585 14.0842C7.26211 13.8448 6.42135 13.3575 5.75435 12.675C5.63774 12.5561 5.4849 12.4795 5.31992 12.4571C5.15493 12.4347 4.98718 12.4678 4.8431 12.5513L4.0301 13.0215C3.94477 13.0715 3.85039 13.1042 3.75239 13.1176C3.65439 13.131 3.55471 13.1249 3.45909 13.0996C3.36346 13.0743 3.27379 13.0303 3.19521 12.9703C3.11664 12.9102 3.05073 12.8352 3.00128 12.7495C2.95182 12.6638 2.9198 12.5692 2.90705 12.4712C2.8943 12.3731 2.90108 12.2734 2.92699 12.178C2.95291 12.0825 2.99745 11.9931 3.05805 11.915C3.11865 11.8368 3.19411 11.7714 3.2801 11.7225L4.0931 11.253C4.23706 11.1699 4.34936 11.0414 4.41234 10.8876C4.47533 10.7338 4.48545 10.5634 4.4411 10.4032C4.18712 9.48295 4.18712 8.51105 4.4411 7.59075C4.48465 7.43091 4.47405 7.26115 4.41096 7.10797C4.34787 6.95479 4.23584 6.8268 4.09235 6.744L3.27935 6.2745C3.10699 6.17504 2.9812 6.01119 2.92965 5.81899C2.8781 5.62679 2.90502 5.42198 3.00447 5.24962C3.10393 5.07727 3.26778 4.95148 3.45998 4.89993C3.65218 4.84838 3.85699 4.87529 4.02935 4.97475L4.84385 5.44575C4.98753 5.52939 5.15493 5.56291 5.31974 5.54105C5.48455 5.51919 5.63743 5.4432 5.75435 5.325C6.42191 4.64351 7.26292 4.15727 8.1866 3.91875C8.34832 3.87717 8.49155 3.78281 8.59358 3.65063C8.6956 3.51844 8.7506 3.35598 8.74985 3.189V2.25C8.74985 2.05109 8.82887 1.86032 8.96952 1.71967C9.11017 1.57902 9.30094 1.5 9.49985 1.5C9.69876 1.5 9.88953 1.57902 10.0302 1.71967C10.1708 1.86032 10.2498 2.05109 10.2498 2.25V3.189C10.2498 3.35547 10.3051 3.51723 10.407 3.64881C10.509 3.78039 10.6519 3.8743 10.8131 3.91575C11.7371 4.15511 12.5781 4.64241 13.2453 5.325C13.362 5.44385 13.5148 5.52052 13.6798 5.54292C13.8448 5.56533 14.0125 5.5322 14.1566 5.44875L14.9696 4.9785C15.0549 4.92848 15.1493 4.89583 15.2473 4.88243C15.3453 4.86903 15.445 4.87514 15.5406 4.90043C15.6362 4.92571 15.7259 4.96965 15.8045 5.02974C15.8831 5.08982 15.949 5.16485 15.9984 5.2505C16.0479 5.33616 16.0799 5.43076 16.0927 5.52884C16.1054 5.62693 16.0986 5.72656 16.0727 5.82202C16.0468 5.91747 16.0023 6.00686 15.9417 6.08503C15.881 6.1632 15.8056 6.22861 15.7196 6.2775L14.9066 6.747C14.7634 6.83003 14.6517 6.95811 14.5889 7.11127C14.526 7.26443 14.5157 7.43407 14.5594 7.59375V7.593Z" fill="#374957"/>
</g>
</svg>
