<svg width="16" height="16" viewBox="0 0 16 16" fill="none" xmlns="http://www.w3.org/2000/svg">
<g id="fi-sr-picture" clip-path="url(#clip0_397_5010)">
<path id="Vector" d="M7.41472 8.35772C7.22899 8.17187 7.00846 8.02444 6.76572 7.92385C6.52299 7.82326 6.26281 7.77148 6.00006 7.77148C5.73731 7.77148 5.47713 7.82326 5.23439 7.92385C4.99166 8.02444 4.77112 8.17187 4.58539 8.35772L0.0253906 12.9177C0.087031 13.7538 0.461996 14.5358 1.07531 15.1073C1.68862 15.6788 2.49506 15.9978 3.33339 16.0004H12.6667C13.3199 16.0003 13.9584 15.8071 14.5021 15.4451L7.41472 8.35772Z" fill="#03A790"/>
<path id="Vector_2" d="M11.9998 5.33365C12.7362 5.33365 13.3332 4.7367 13.3332 4.00032C13.3332 3.26394 12.7362 2.66699 11.9998 2.66699C11.2635 2.66699 10.6665 3.26394 10.6665 4.00032C10.6665 4.7367 11.2635 5.33365 11.9998 5.33365Z" fill="#03A790"/>
<path id="Vector_3" d="M12.6667 0H3.33333C2.4496 0.00105857 1.60237 0.352588 0.97748 0.97748C0.352588 1.60237 0.00105857 2.4496 0 3.33333L0 11.0573L3.64267 7.41467C3.95221 7.10505 4.31971 6.85944 4.72419 6.69186C5.12866 6.52429 5.56219 6.43805 6 6.43805C6.43781 6.43805 6.87134 6.52429 7.27582 6.69186C7.68029 6.85944 8.04779 7.10505 8.35733 7.41467L15.4447 14.502C15.8067 13.9583 15.9999 13.3198 16 12.6667V3.33333C15.9989 2.4496 15.6474 1.60237 15.0225 0.97748C14.3976 0.352588 13.5504 0.00105857 12.6667 0V0ZM12 6.66667C11.4726 6.66667 10.957 6.51027 10.5185 6.21725C10.0799 5.92424 9.73816 5.50776 9.53632 5.02049C9.33449 4.53322 9.28168 3.99704 9.38457 3.47976C9.48747 2.96248 9.74144 2.48732 10.1144 2.11438C10.4873 1.74144 10.9625 1.48747 11.4798 1.38457C11.997 1.28168 12.5332 1.33449 13.0205 1.53632C13.5078 1.73816 13.9242 2.07995 14.2173 2.51848C14.5103 2.95701 14.6667 3.47258 14.6667 4C14.6667 4.70724 14.3857 5.38552 13.8856 5.88562C13.3855 6.38572 12.7072 6.66667 12 6.66667Z" fill="#03A790"/>
</g>
<defs>
<clipPath id="clip0_397_5010">
<rect width="16" height="16" fill="white"/>
</clipPath>
</defs>
</svg>
